<svg width="1440" height="600" viewBox="0 0 1440 600" fill="none" xmlns="http://www.w3.org/2000/svg">
<path d="M1009.27 138.913H477.031C461.567 138.913 449.031 151.449 449.031 166.913V480.6C449.031 496.064 461.567 508.6 477.031 508.6H1009.27C1024.73 508.6 1037.27 496.064 1037.27 480.6V166.913C1037.27 151.449 1024.73 138.913 1009.27 138.913Z" fill="white" stroke="#E5E7EB" stroke-width="4"/>
<path d="M953.205 166.091H912.44C906.04 166.091 900.851 171.279 900.851 177.68C900.851 184.08 906.04 189.268 912.44 189.268H953.205C959.605 189.268 964.794 184.08 964.794 177.68C964.794 171.279 959.605 166.091 953.205 166.091Z" fill="white" stroke="#E5E7EB" stroke-width="4"/>
<path d="M867.144 166.091H826.379C819.979 166.091 814.79 171.279 814.79 177.68C814.79 184.08 819.979 189.268 826.379 189.268H867.144C873.544 189.268 878.733 184.08 878.733 177.68C878.733 171.279 873.544 166.091 867.144 166.091Z" fill="white" stroke="#E5E7EB" stroke-width="4"/>
<path d="M792.672 177.68C792.672 171.279 787.484 166.091 781.083 166.091C774.683 166.091 769.495 171.279 769.495 177.68C769.495 184.08 774.683 189.268 781.083 189.268C787.484 189.268 792.672 184.08 792.672 177.68Z" fill="white" stroke="#E5E7EB" stroke-width="4"/>
<path d="M522.553 381.315H601.611V410.268H634.907V381.315H655.335V353.407H634.907V245.557H591.316L522.553 353.89V381.315ZM602.254 353.407H557.618V352.12L600.967 283.518H602.254V353.407ZM743.118 413.887C784.537 413.887 809.549 382.36 809.63 328.073C809.71 274.189 784.376 243.305 743.118 243.305C701.78 243.305 676.687 274.108 676.607 328.073C676.446 382.199 701.619 413.806 743.118 413.887ZM743.118 385.014C724.219 385.014 711.994 366.034 712.074 328.073C712.155 290.676 724.299 271.856 743.118 271.856C761.857 271.856 774.082 290.676 774.082 328.073C774.162 366.034 761.938 385.014 743.118 385.014ZM831.968 381.315H911.026V410.268H944.322V381.315H964.75V353.407H944.322V245.557H900.731L831.968 353.89V381.315ZM911.669 353.407H867.033V352.12L910.382 283.518H911.669V353.407Z" fill="#E5E7EB"/>
<path d="M505.047 175.415C505.047 170.266 500.872 166.091 495.723 166.091C490.573 166.091 486.399 170.266 486.399 175.415C486.399 180.565 490.573 184.739 495.723 184.739C500.872 184.739 505.047 180.565 505.047 175.415Z" fill="white" stroke="#E5E7EB" stroke-width="4"/>
<path d="M456.698 387.712C463.233 387.712 468.531 393.01 468.531 399.545C468.531 406.08 463.233 411.378 456.698 411.378C450.163 411.378 444.865 406.08 444.865 399.545C444.865 393.01 450.163 387.712 456.698 387.712Z" fill="#0E9F6E"/>
<path d="M1046.4 259.957C1038.48 264.532 1028.35 261.817 1023.77 253.892C1019.2 245.967 1021.91 235.834 1029.84 231.258C1037.76 226.683 1047.89 229.398 1052.47 237.323C1057.04 245.248 1054.33 255.381 1046.4 259.957Z" fill="#0E9F6E"/>
<path d="M736.813 189.921C729.993 189.921 724.464 184.392 724.464 177.572C724.464 170.752 729.993 165.223 736.813 165.223C743.633 165.223 749.162 170.752 749.162 177.572C749.162 184.392 743.633 189.921 736.813 189.921Z" fill="#E5E7EB"/>
<path d="M589.16 148.268C598.237 148.268 605.595 140.91 605.595 131.833C605.595 122.756 598.237 115.398 589.16 115.398C580.083 115.398 572.725 122.756 572.725 131.833C572.725 140.91 580.083 148.268 589.16 148.268Z" fill="#0E9F6E"/>
<path d="M824.114 430.2C816.609 430.2 810.525 436.284 810.525 443.789C810.525 451.294 816.609 457.378 824.114 457.378C831.619 457.378 837.703 451.294 837.703 443.789C837.703 436.284 831.619 430.2 824.114 430.2Z" fill="#0E9F6E"/>
<path d="M572.76 482.358C565.862 482.358 560.27 476.766 560.27 469.868C560.27 462.97 565.862 457.378 572.76 457.378C579.658 457.378 585.25 462.97 585.25 469.868C585.25 476.766 579.658 482.358 572.76 482.358Z" fill="#E5E7EB"/>
<path d="M697.767 423.557C702.244 426.141 703.778 431.866 701.193 436.343C698.609 440.82 692.884 442.353 688.407 439.769C683.93 437.184 682.397 431.46 684.981 426.983C687.566 422.506 693.29 420.972 697.767 423.557Z" fill="#E5E7EB"/>
<path d="M1006.46 163.478L989.433 180.502C988.813 181.122 988.813 182.128 989.433 182.748C990.052 183.367 991.058 183.367 991.678 182.747L1008.7 165.723C1009.32 165.103 1009.32 164.097 1008.7 163.477C1008.08 162.857 1007.08 162.858 1006.46 163.478Z" fill="#E5E7EB"/>
<path d="M1004.79 175.668L999.882 180.577C999.262 181.197 999.262 182.203 999.882 182.822C1000.5 183.442 1001.51 183.442 1002.13 182.822L1007.04 177.913C1007.66 177.293 1007.66 176.287 1007.04 175.667C1006.42 175.047 1005.41 175.047 1004.79 175.668Z" fill="#E5E7EB"/>
<path d="M481.386 464.044L466.152 479.278C465.598 479.832 465.598 480.732 466.152 481.286L466.153 481.287C466.707 481.841 467.606 481.841 468.161 481.287L483.395 466.053C483.949 465.498 483.949 464.599 483.395 464.045L483.394 464.044C482.84 463.489 481.941 463.489 481.386 464.044Z" fill="#E5E7EB"/>
<path d="M479.895 474.95L475.501 479.344C474.947 479.898 474.947 480.798 475.501 481.352L475.502 481.353C476.056 481.907 476.955 481.907 477.51 481.353L481.904 476.959C482.459 476.404 482.459 475.505 481.904 474.951L481.903 474.95C481.349 474.395 480.45 474.395 479.895 474.95Z" fill="#E5E7EB"/>
<path d="M407.559 167.787L437.008 138.338C438.081 137.265 438.081 135.527 437.008 134.454C435.936 133.382 434.197 133.382 433.125 134.454L403.676 163.903C402.604 164.976 402.604 166.714 403.676 167.787C404.748 168.859 406.487 168.859 407.559 167.787Z" fill="#E5E7EB"/>
<path d="M410.443 146.702L418.936 138.209C420.009 137.136 420.009 135.398 418.936 134.325C417.864 133.253 416.125 133.253 415.053 134.325L406.56 142.818C405.487 143.891 405.487 145.629 406.56 146.702C407.632 147.774 409.371 147.774 410.443 146.702Z" fill="#E5E7EB"/>
<path d="M992.411 484.566L1013.14 463.834C1013.9 463.079 1013.9 461.855 1013.14 461.1C1012.39 460.345 1011.16 460.345 1010.41 461.1L989.677 481.832C988.922 482.587 988.922 483.811 989.677 484.566C990.432 485.32 991.656 485.32 992.411 484.566Z" fill="#E5E7EB"/>
<path d="M994.44 469.723L1000.42 463.744C1001.17 462.989 1001.17 461.765 1000.42 461.01C999.664 460.255 998.44 460.255 997.686 461.01L991.706 466.989C990.951 467.744 990.951 468.968 991.706 469.723C992.461 470.478 993.685 470.478 994.44 469.723Z" fill="#E5E7EB"/>
<path fill-rule="evenodd" clip-rule="evenodd" d="M978.429 102.773H981.733C982.532 102.773 983.175 103.423 983.175 104.215V107.519C983.175 108.318 982.525 108.961 981.733 108.961H978.429C977.637 108.961 976.987 108.311 976.987 107.519V104.215C976.987 104.026 977.024 103.838 977.096 103.663C977.168 103.488 977.274 103.328 977.408 103.195C977.542 103.061 977.702 102.954 977.877 102.882C978.052 102.81 978.24 102.773 978.429 102.773ZM989.884 102.773H993.188C993.98 102.773 994.63 103.423 994.63 104.215V107.519C994.63 108.318 993.98 108.961 993.188 108.961H989.884C989.092 108.961 988.442 108.311 988.442 107.519V104.215C988.442 103.423 989.092 102.773 989.884 102.773ZM1001.35 102.773H1004.65C1005.44 102.773 1006.09 103.423 1006.09 104.215V107.519C1006.09 108.318 1005.44 108.961 1004.65 108.961H1001.35C1000.55 108.961 999.905 108.311 999.905 107.519V104.215C999.905 104.026 999.942 103.838 1000.01 103.663C1000.09 103.488 1000.19 103.328 1000.33 103.195C1000.46 103.061 1000.62 102.954 1000.79 102.882C1000.97 102.81 1001.16 102.773 1001.35 102.773ZM1012.8 102.773H1016.11C1016.9 102.773 1017.55 103.423 1017.55 104.215V107.519C1017.55 108.318 1016.9 108.961 1016.11 108.961H1012.8C1012.42 108.961 1012.05 108.809 1011.78 108.539C1011.51 108.269 1011.36 107.902 1011.35 107.519V104.215C1011.36 103.833 1011.51 103.467 1011.78 103.198C1012.05 102.928 1012.42 102.775 1012.8 102.773ZM1024.26 102.773H1027.56C1028.36 102.773 1029.01 103.423 1029.01 104.215V107.519C1029.01 108.318 1028.36 108.961 1027.56 108.961H1024.26C1023.47 108.961 1022.82 108.311 1022.82 107.519V104.215C1022.82 103.423 1023.47 102.773 1024.26 102.773ZM990.304 115.265H993.608C994.401 115.265 995.051 115.915 995.051 116.707V120.018C995.051 120.81 994.401 121.46 993.608 121.46H990.304C989.505 121.46 988.862 120.81 988.862 120.018V116.714C988.861 116.524 988.897 116.336 988.969 116.16C989.041 115.984 989.147 115.824 989.281 115.689C989.415 115.555 989.575 115.448 989.75 115.375C989.926 115.302 990.114 115.265 990.304 115.265ZM1001.76 115.265H1005.06C1005.86 115.265 1006.51 115.915 1006.51 116.707V120.018C1006.51 120.81 1005.86 121.46 1005.06 121.46H1001.76C1000.97 121.46 1000.32 120.81 1000.32 120.018V116.714C1000.32 116.524 1000.35 116.336 1000.43 116.16C1000.5 115.984 1000.6 115.824 1000.74 115.689C1000.87 115.555 1001.03 115.448 1001.21 115.375C1001.38 115.302 1001.57 115.265 1001.76 115.265ZM1013.22 115.265H1016.52C1017.32 115.265 1017.97 115.915 1017.97 116.707V120.018C1017.97 120.401 1017.81 120.768 1017.54 121.038C1017.27 121.308 1016.9 121.46 1016.52 121.46H1013.22C1012.42 121.46 1011.77 120.81 1011.77 120.018V116.714C1011.77 115.915 1012.42 115.265 1013.22 115.265ZM1001.35 89.353H1004.65C1005.44 89.353 1006.09 90.003 1006.09 90.795V94.1C1006.09 94.898 1005.44 95.542 1004.65 95.542H1001.35C1000.55 95.542 999.905 94.892 999.905 94.1V90.795C999.905 90.6056 999.942 90.4179 1000.01 90.2427C1000.09 90.0676 1000.19 89.9085 1000.33 89.7745C1000.46 89.6405 1000.62 89.5343 1000.79 89.462C1000.97 89.3897 1001.16 89.3526 1001.35 89.353ZM1012.8 89.353H1016.11C1016.9 89.353 1017.55 90.003 1017.55 90.795V94.1C1017.55 94.898 1016.9 95.542 1016.11 95.542H1012.8C1012.42 95.5418 1012.05 95.39 1011.78 95.1198C1011.51 94.8496 1011.36 94.483 1011.35 94.1V90.795C1011.36 90.4127 1011.51 90.0473 1011.78 89.7776C1012.05 89.5078 1012.42 89.3554 1012.8 89.353ZM381.663 492.313H384.967C385.766 492.313 386.409 492.963 386.409 493.755V497.059C386.409 497.858 385.759 498.501 384.967 498.501H381.663C380.871 498.501 380.221 497.851 380.221 497.059V493.755C380.221 493.566 380.258 493.378 380.33 493.203C380.402 493.028 380.509 492.868 380.642 492.734C380.776 492.601 380.936 492.494 381.111 492.422C381.286 492.35 381.474 492.313 381.663 492.313ZM393.118 492.313H396.422C397.215 492.313 397.865 492.963 397.865 493.755V497.059C397.865 497.858 397.215 498.501 396.422 498.501H393.118C392.326 498.501 391.676 497.851 391.676 497.059V493.755C391.676 492.963 392.326 492.313 393.118 492.313ZM404.581 492.313H407.886C408.678 492.313 409.328 492.963 409.328 493.755V497.059C409.328 497.858 408.678 498.501 407.886 498.501H404.581C403.789 498.501 403.139 497.851 403.139 497.059V493.755C403.139 493.566 403.176 493.378 403.248 493.203C403.321 493.028 403.427 492.869 403.561 492.735C403.695 492.601 403.854 492.495 404.029 492.422C404.204 492.35 404.392 492.313 404.581 492.313ZM416.037 492.313H419.341C420.133 492.313 420.783 492.963 420.783 493.755V497.059C420.783 497.858 420.133 498.501 419.341 498.501H416.037C415.654 498.501 415.287 498.349 415.015 498.079C414.744 497.809 414.59 497.442 414.588 497.059V493.755C414.592 493.373 414.746 493.007 415.017 492.738C415.289 492.468 415.655 492.315 416.037 492.313ZM427.493 492.313H430.797C431.596 492.313 432.246 492.963 432.246 493.755V497.059C432.246 497.858 431.596 498.501 430.797 498.501H427.493C426.701 498.501 426.051 497.851 426.051 497.059V493.755C426.051 492.963 426.701 492.313 427.493 492.313ZM393.539 504.805H396.843C397.635 504.805 398.285 505.455 398.285 506.247V509.558C398.285 510.35 397.635 511 396.843 511H393.539C392.74 511 392.096 510.35 392.096 509.558V506.254C392.095 506.064 392.132 505.876 392.204 505.7C392.276 505.524 392.382 505.364 392.516 505.229C392.65 505.095 392.81 504.988 392.985 504.915C393.161 504.842 393.349 504.805 393.539 504.805ZM404.994 504.805H408.298C409.09 504.805 409.74 505.455 409.74 506.247V509.558C409.74 510.35 409.09 511 408.298 511H404.994C404.202 511 403.552 510.35 403.552 509.558V506.254C403.551 506.064 403.587 505.876 403.659 505.7C403.731 505.524 403.837 505.364 403.971 505.229C404.105 505.095 404.265 504.988 404.44 504.915C404.616 504.842 404.804 504.805 404.994 504.805ZM416.45 504.805H419.754C420.553 504.805 421.203 505.455 421.203 506.247V509.558C421.201 509.941 421.047 510.308 420.776 510.578C420.504 510.848 420.137 511 419.754 511H416.45C415.658 511 415.008 510.35 415.008 509.558V506.254C415.008 505.455 415.658 504.805 416.45 504.805ZM404.582 478.893H407.886C408.678 478.893 409.328 479.543 409.328 480.336V483.64C409.328 484.439 408.678 485.082 407.886 485.082H404.582C403.789 485.082 403.139 484.432 403.139 483.64V480.336C403.139 480.146 403.176 479.959 403.248 479.783C403.32 479.608 403.427 479.449 403.561 479.315C403.695 479.181 403.854 479.074 404.029 479.002C404.205 478.93 404.392 478.893 404.582 478.893ZM416.037 478.893H419.341C420.133 478.893 420.783 479.543 420.783 480.336V483.64C420.783 484.439 420.133 485.082 419.341 485.082H416.037C415.654 485.082 415.287 484.93 415.015 484.66C414.744 484.39 414.59 484.023 414.588 483.64V480.336C414.592 479.953 414.746 479.588 415.017 479.318C415.288 479.048 415.654 478.895 416.037 478.893Z" fill="#E5E7EB"/>
<path fill-rule="evenodd" clip-rule="evenodd" d="M450.882 325.922C426.242 325.922 406.265 305.663 406.265 280.676C406.265 255.689 426.242 235.431 450.882 235.431C475.522 235.431 495.499 255.689 495.499 280.676C495.499 305.663 475.522 325.922 450.882 325.922Z" fill="#0E9F6E"/>
<path d="M468.857 261.476L450.009 281.585L438.693 269.521" stroke="white" stroke-width="7.405" stroke-linecap="round" stroke-linejoin="round"/>
<path d="M431.178 300.835L450.026 280.726L461.342 292.79" stroke="white" stroke-width="7.405" stroke-linecap="round" stroke-linejoin="round"/>
</svg>
